<svg width="59" height="59" viewBox="0 0 59 59" fill="none" xmlns="http://www.w3.org/2000/svg">
<path d="M29.5 58.25L28.6957 58.239C13.1971 57.8125 0.750003 45.101 0.750001 29.5C0.75 13.6588 13.63 0.750008 29.5 0.750006C45.3412 0.750005 58.25 13.6588 58.25 29.5C58.25 45.37 45.3413 58.25 29.5 58.25ZM23.8075 41C24.67 41.8625 26.0213 41.8625 26.855 41L36.8887 31.0238C37.2912 30.6213 37.5212 30.075 37.5212 29.5C37.5212 28.925 37.2912 28.3788 36.8887 27.9763L26.855 18C26.4525 17.5688 25.9063 17.3675 25.36 17.3675C24.785 17.3675 24.2388 17.5688 23.8075 18C22.9738 18.8625 22.9737 20.2138 23.8362 21.0475L32.3175 29.5L23.8362 37.9525C22.9737 38.7863 22.9738 40.1663 23.8075 41Z" fill="white" fill-opacity="0.7"/>
</svg>
