<svg width="13" height="13" viewBox="0 0 13 13" fill="none" xmlns="http://www.w3.org/2000/svg">
<path d="M6.49982 4.87679C7.15607 4.87679 7.77482 5.13276 8.23732 5.59475C8.69982 6.06297 8.95607 6.68104 8.95607 7.33032C8.94982 8.01081 8.67482 8.62263 8.23107 9.06589C7.78732 9.50915 7.17482 9.78384 6.49982 9.78384C5.84357 9.78384 5.23107 9.52787 4.76232 9.06589C4.29982 8.59766 4.04357 7.98584 4.04357 7.33032C4.03732 6.68104 4.29357 6.06922 4.75607 5.60099C5.22482 5.13276 5.84357 4.87679 6.49982 4.87679ZM6.49982 5.81325C6.09357 5.81325 5.71232 5.96933 5.41857 6.26275C5.13107 6.54993 4.97482 6.93076 4.98107 7.32407V7.33032C4.98107 7.73612 5.13732 8.11694 5.42482 8.40412C5.71232 8.6913 6.09357 8.84738 6.49982 8.84738C7.33732 8.84738 8.01232 8.16689 8.01857 7.33032C8.01857 6.92452 7.86232 6.54369 7.57482 6.25651C7.28732 5.96933 6.90607 5.81325 6.49982 5.81325ZM10.0061 4.72696C10.3186 4.72696 10.5748 4.98292 10.5748 5.29508C10.5748 5.60723 10.3186 5.85695 10.0061 5.85695C9.69357 5.85695 9.44357 5.60723 9.44357 5.29508C9.44357 4.98292 9.69357 4.72696 10.0061 4.72696Z" fill="white"/>
<path opacity="0.5" d="M9.9 2.89775L9.8375 2.76041C9.66875 2.40455 9.475 1.99251 9.35625 1.75527C9.06875 1.1934 8.575 0.881243 7.96875 0.875H5.025C4.41875 0.881243 3.93125 1.1934 3.64375 1.75527C3.51875 2.00499 3.30625 2.45449 3.13125 2.82284L3.09375 2.89775C3.075 2.9477 3.025 2.97267 2.975 2.97267C1.46875 2.97267 0.25 4.19631 0.25 5.69464V9.40302C0.25 10.9014 1.46875 12.125 2.975 12.125H10.025C11.525 12.125 12.75 10.9014 12.75 9.40302V5.69464C12.75 4.19631 11.525 2.97267 10.025 2.97267C9.96875 2.97267 9.925 2.94145 9.9 2.89775Z" fill="white"/>
</svg>
