<svg width="22" height="22" viewBox="0 0 22 22" fill="none" xmlns="http://www.w3.org/2000/svg">
<path d="M6.51199 12.6167C8.06304 12.6167 9.30609 13.8718 9.30609 15.4339V19.1839C9.30609 20.7349 8.06304 22 6.51199 22H2.79386C1.2538 22 -0.000244141 20.7349 -0.000244141 19.1839V15.4339C-0.000244141 13.8718 1.2538 12.6167 2.79386 12.6167H6.51199ZM19.2065 12.6167C20.7466 12.6167 22.0006 13.8718 22.0006 15.4339V19.1839C22.0006 20.7349 20.7466 22 19.2065 22H15.4884C13.9374 22 12.6943 20.7349 12.6943 19.1839V15.4339C12.6943 13.8718 13.9374 12.6167 15.4884 12.6167H19.2065ZM6.51199 -0.000457764C8.06304 -0.000457764 9.30609 1.26459 9.30609 2.81674V6.56678C9.30609 8.12883 8.06304 9.38288 6.51199 9.38288H2.79386C1.2538 9.38288 -0.000244141 8.12883 -0.000244141 6.56678V2.81674C-0.000244141 1.26459 1.2538 -0.000457764 2.79386 -0.000457764H6.51199ZM19.2065 -0.000457764C20.7466 -0.000457764 22.0006 1.26459 22.0006 2.81674V6.56678C22.0006 8.12883 20.7466 9.38288 19.2065 9.38288H15.4884C13.9374 9.38288 12.6943 8.12883 12.6943 6.56678V2.81674C12.6943 1.26459 13.9374 -0.000457764 15.4884 -0.000457764H19.2065Z" fill="#20409A"/>
</svg>
