<svg width="32" height="32" viewBox="0 0 32 32" fill="none" xmlns="http://www.w3.org/2000/svg">
<rect width="32" height="32" rx="16" fill="url(#paint0_linear_2004_352)"/>
<path fill-rule="evenodd" clip-rule="evenodd" d="M11.2692 6H19.8247C22.7303 6 25.0942 8.36386 25.0941 11.2693V19.8248C25.0941 22.7302 22.7303 25.0941 19.8247 25.0941H11.2692C8.36375 25.0941 6 22.7303 6 19.8248V11.2693C6 8.36386 8.36375 6 11.2692 6ZM19.8248 23.3999C21.7962 23.3999 23.4001 21.7962 23.4001 19.8248H23.3999V11.2693C23.3999 9.298 21.7961 7.69412 19.8247 7.69412H11.2692C9.29788 7.69412 7.69412 9.298 7.69412 11.2693V19.8248C7.69412 21.7962 9.29788 23.4001 11.2692 23.3999H19.8248ZM10.627 15.5473C10.627 12.8343 12.8341 10.6272 15.547 10.6272C18.26 10.6272 20.4671 12.8343 20.4671 15.5473C20.4671 18.2601 18.26 20.4671 15.547 20.4671C12.8341 20.4671 10.627 18.2601 10.627 15.5473ZM12.3211 15.5471C12.3211 17.3259 13.7683 18.7729 15.547 18.7729C17.3257 18.7729 18.773 17.3259 18.773 15.5471C18.773 13.7683 17.3259 12.3212 15.547 12.3212C13.7682 12.3212 12.3211 13.7683 12.3211 15.5471ZM19.7959 9.55437C20.0264 9.32284 20.347 9.1907 20.6734 9.1907C21.001 9.1907 21.3217 9.32284 21.5521 9.55437C21.7836 9.78477 21.9158 10.1055 21.9158 10.4331C21.9158 10.7595 21.7836 11.0802 21.5521 11.3117C21.3206 11.5421 21.001 11.6754 20.6734 11.6754C20.347 11.6754 20.0263 11.5421 19.7959 11.3117C19.5643 11.0802 19.4311 10.7596 19.4311 10.4331C19.4311 10.1055 19.5642 9.78477 19.7959 9.55437Z" fill="white"/>
<defs>
<linearGradient id="paint0_linear_2004_352" x1="15.8695" y1="42.0109" x2="41.7495" y2="16.1305" gradientUnits="userSpaceOnUse">
<stop stop-color="#FFC107"/>
<stop offset="0.507" stop-color="#F44336"/>
<stop offset="1" stop-color="#9C27B0"/>
</linearGradient>
</defs>
</svg>
