<svg width="32" height="32" viewBox="0 0 32 32" fill="none" xmlns="http://www.w3.org/2000/svg">
<rect width="32" height="32" rx="16" fill="#0077B5"/>
<path fill-rule="evenodd" clip-rule="evenodd" d="M10.9719 12.7668V25.2997H6.91577V12.7668H10.9719ZM11.2308 8.86971C11.2308 9.48971 11.0582 10.0211 10.6267 10.4197C10.1952 10.8183 9.63426 11.0397 8.94385 11.0397C8.25344 11.0397 7.69248 10.8183 7.30412 10.4197C6.87261 10.0211 6.70001 9.48971 6.70001 8.86971C6.70001 8.24971 6.87261 7.71828 7.30412 7.31971C7.73563 6.92114 8.29659 6.69971 8.987 6.69971C9.67741 6.69971 10.1952 6.92114 10.6267 7.31971C11.0151 7.71828 11.2308 8.24971 11.2308 8.86971ZM25.6 18.0811V25.2997H21.5438V18.5683C21.5438 17.6826 21.4144 17.0183 21.0692 16.4868C20.724 15.9997 20.2062 15.734 19.5158 15.734C18.998 15.734 18.5665 15.9111 18.2212 16.1769C17.8329 16.4868 17.574 16.8411 17.4014 17.284C17.3151 17.5054 17.2719 17.8597 17.2719 18.3026V25.2997H13.2158C13.2589 21.934 13.2589 19.1883 13.2589 17.1069C13.2589 15.0254 13.2589 13.7411 13.2589 13.3426L13.2158 12.7668H17.2719V14.5826C17.4445 14.3168 17.574 14.0511 17.7466 13.874C17.9192 13.6526 18.1781 13.4311 18.4801 13.2097C18.7391 12.9883 19.1274 12.7668 19.5158 12.634C19.9473 12.5011 20.4219 12.4568 20.9397 12.4568C22.3637 12.4568 23.4856 12.944 24.3486 13.874C25.2117 14.8483 25.6 16.2654 25.6 18.0811Z" fill="white"/>
</svg>
