<svg width="13" height="13" viewBox="0 0 13 13" fill="none" xmlns="http://www.w3.org/2000/svg">
<path opacity="0.5" d="M12.75 6.50301C12.75 9.94609 9.94474 12.75 6.5 12.75C3.05526 12.75 0.25 9.94609 0.25 6.50301C0.25 3.05391 3.05526 0.25 6.5 0.25C9.94474 0.25 12.75 3.05391 12.75 6.50301Z" fill="white"/>
<path d="M9 6.50304C9 6.661 8.95028 6.81956 8.85085 6.94654C8.83221 6.97145 8.74521 7.07412 8.67685 7.14095L8.63956 7.1774C8.11754 7.73086 6.81871 8.56318 6.15998 8.82989C6.15998 8.83597 5.76847 8.99453 5.58203 9H5.55717C5.27131 9 5.00408 8.84265 4.86737 8.58748C4.79279 8.44714 4.72443 8.0401 4.71822 8.03463C4.66229 7.6695 4.625 7.11057 4.625 6.49696C4.625 5.85358 4.66229 5.26974 4.73065 4.9113C4.73065 4.90522 4.79901 4.57716 4.84251 4.4678C4.91087 4.31045 5.03516 4.17618 5.19052 4.09113C5.31481 4.03098 5.44531 4 5.58203 4C5.72496 4.00668 5.99219 4.09721 6.09783 4.13973C6.79386 4.40705 8.12376 5.2819 8.63335 5.81652C8.72035 5.90158 8.81357 6.00547 8.83842 6.02916C8.94407 6.16282 9 6.32685 9 6.50304Z" fill="white"/>
</svg>
