<svg width="32" height="32" viewBox="0 0 32 32" fill="none" xmlns="http://www.w3.org/2000/svg">
<rect width="32" height="32" rx="16" fill="#FF0000"/>
<path fill-rule="evenodd" clip-rule="evenodd" d="M20.3395 16.0001C20.3395 15.7362 20.2252 15.5476 19.9967 15.4345L14.4362 11.9657C14.2076 11.8149 13.9791 11.8149 13.7125 11.9657C13.484 12.0788 13.3698 12.2673 13.3698 12.569V19.4312C13.3698 19.7329 13.484 19.9214 13.7125 20.0345C13.8268 20.1099 13.941 20.1476 14.0553 20.1476C14.2076 20.1476 14.3219 20.1099 14.4362 20.0345L19.9967 16.5657C20.2252 16.4526 20.3395 16.264 20.3395 16.0001ZM25.9 16.0001C25.9 16.6788 25.9 17.2444 25.9 17.6214C25.9 17.9985 25.8619 18.4886 25.7858 19.0919C25.7477 19.6952 25.6715 20.223 25.5573 20.6755C25.443 21.2034 25.1764 21.6558 24.7955 21.9952C24.4147 22.3722 23.9576 22.5608 23.4625 22.6362C21.8248 22.787 19.4254 22.9001 16.15 22.9001C12.8746 22.9001 10.4752 22.787 8.83752 22.6362C8.34241 22.5608 7.88538 22.3722 7.50452 21.9952C7.12366 21.6558 6.85706 21.2034 6.7428 20.6755C6.62854 20.223 6.55237 19.6952 6.51428 19.0919C6.43811 18.4886 6.40002 17.9985 6.40002 17.6214C6.40002 17.2444 6.40002 16.6788 6.40002 16.0001C6.40002 15.3214 6.40002 14.7558 6.40002 14.3788C6.40002 14.0017 6.43811 13.5116 6.51428 12.9083C6.55237 12.305 6.62854 11.7771 6.7428 11.3247C6.85706 10.7968 7.12366 10.3444 7.50452 10.005C7.88538 9.62797 8.34241 9.43944 8.83752 9.36403C10.4752 9.21321 12.8746 9.1001 16.15 9.1001C19.4254 9.1001 21.8248 9.21321 23.4625 9.36403C23.9576 9.43944 24.4147 9.62797 24.7955 10.005C25.1764 10.3444 25.443 10.7968 25.5573 11.3247C25.6715 11.7771 25.7477 12.305 25.7858 12.9083C25.8619 13.5116 25.9 14.0017 25.9 14.3788C25.9 14.7558 25.9 15.3214 25.9 16.0001Z" fill="white"/>
</svg>
